<svg xmlns="http://www.w3.org/2000/svg" xmlns:xlink="http://www.w3.org/1999/xlink" width="275.906" height="275.906" viewBox="0 0 58.4 58.4"><defs><radialGradient xlink:href="#a" id="b" cx="46.986" cy="181.885" r="9.65" fx="46.986" fy="181.885" gradientTransform="matrix(-.82815 .39144 -.46524 -.98427 -817.75 -1099.78)" gradientUnits="userSpaceOnUse"/><radialGradient xlink:href="#a" id="c" cx="46.986" cy="181.885" r="9.65" fx="46.986" fy="181.885" gradientTransform="matrix(-1.0308 .59513 -.70733 -1.22512 -800.663 -1014.317)" gradientUnits="userSpaceOnUse"/><radialGradient xlink:href="#a" id="d" cx="46.986" cy="181.885" r="9.65" fx="46.986" fy="181.885" gradientTransform="matrix(-1.3799 .79669 -.94688 -1.64004 -695.182 -889.899)" gradientUnits="userSpaceOnUse"/><radialGradient xlink:href="#a" id="e" cx="46.986" cy="181.885" r="9.65" fx="46.986" fy="181.885" gradientTransform="matrix(-.82815 .39144 -.46524 -.98427 -817.75 -1099.78)" gradientUnits="userSpaceOnUse"/><radialGradient xlink:href="#a" id="f" cx="46.986" cy="181.885" r="9.65" fx="46.986" fy="181.885" gradientTransform="matrix(-1.0308 .59513 -.70733 -1.22512 -800.663 -1014.317)" gradientUnits="userSpaceOnUse"/><radialGradient xlink:href="#a" id="g" cx="46.986" cy="181.885" r="9.65" fx="46.986" fy="181.885" gradientTransform="matrix(-1.3799 .79669 -.94688 -1.64004 -695.182 -889.899)" gradientUnits="userSpaceOnUse"/><linearGradient id="a"><stop offset="0" style="stop-color:#000;stop-opacity:1"/><stop offset="1" style="stop-color:#fff;stop-opacity:1"/></linearGradient></defs><g style="display:inline"><path d="M62.847 66.246v48.97c0 1.801 1.667 3.497 3.412 3.497h49.14c1.662 0 3.412-1.626 3.412-3.498V66.246c0-1.69-.927-3.498-2.73-3.498H66.26c-1.702 0-3.412 1.835-3.412 3.498z" style="display:inline;fill:#fff;fill-opacity:1;stroke:#000;stroke-width:2.4352;stroke-linecap:butt;stroke-linejoin:miter;stroke-miterlimit:4;stroke-dasharray:none;stroke-opacity:1" transform="translate(-61.629 -61.53)"/><path d="M67.267 70.114v41.233c0 1.517 1.405 2.945 2.874 2.945h41.376c1.4 0 2.874-1.369 2.874-2.945V70.114c0-1.423-.781-2.945-2.3-2.945h-41.95c-1.433 0-2.874 1.545-2.874 2.945z" style="display:inline;fill:#000;fill-opacity:1;stroke:none;stroke-width:.0769687px;stroke-linecap:butt;stroke-linejoin:miter;stroke-opacity:1" transform="translate(-61.629 -61.53)"/><g style="display:inline;fill:#fff;fill-opacity:1;stroke:none"><path d="M-1040-1053v100h24c15.088 0 30-15.003 30-30 0-14.936-14.813-30.22-30-30.22l-6.412.04v13.972l6.412-.011c8 0 16 8 16 16s-8 16-16 16l-10 .219v-86c.809.021-13.113.08-14 0" style="fill:#fff;fill-opacity:1;stroke:none;stroke-width:.264583px;stroke-linecap:butt;stroke-linejoin:miter;stroke-opacity:1" transform="matrix(.28704 0 0 .28704 311.651 311.312)"/><path d="M-1022-1017h54l10-.15c8 0 16 8 16 16s-8 16-16 16h-10V-1013c-2.412-.036-10.412-.036-14 0l.155 100.347c2.222.037 10.073-.015 13.742 0l.103-58.497h10c15.179 0 30-15.132 30-30 0-16-16-30-30-30l-64 .15c.015 1.55.067 11.778 0 14z" style="fill:#fff;fill-opacity:1;stroke:none;stroke-width:.264583px;stroke-linecap:butt;stroke-linejoin:miter;stroke-opacity:1" transform="matrix(.28704 0 0 .28704 311.651 311.312)"/></g><g style="display:inline" transform="matrix(.1152 0 0 .1152 155.311 177.28)"><circle cx="-1043.875" cy="-1167.205" r="18.506" style="opacity:1;vector-effect:none;fill:#fff;fill-opacity:1;stroke:none;stroke-width:.384706;stroke-linecap:butt;stroke-linejoin:miter;stroke-miterlimit:4;stroke-dasharray:none;stroke-dashoffset:0;stroke-opacity:1" transform="rotate(4.701)"/><path d="M-950.138-1261.643c2.075-1.77 5.303-1.938 8.037-1.708 3.118.348 5.236 2.014 7.178 3.912.85 1.092 1.987 1.891 2.268 3.512.04.997-.316 1.527-.68 2.046-.785.468-1.478.563-2.507.086-.995-1.648-2.06-2.949-3.727-4.235-1.322-.919-3.149-1.39-5.613-1.3-1.838.4-2.032.61-2.834.89-.96-.01-1.003.3-2.187-1.032-.627-.725-.532-1.886.065-2.171z" style="fill:url(#b);fill-opacity:1;stroke:none;stroke-width:.251365px;stroke-linecap:butt;stroke-linejoin:miter;stroke-opacity:1"/><circle cx="-980.128" cy="-1190.477" r="27.57" style="opacity:1;vector-effect:none;fill:#fff;fill-opacity:1;stroke:none;stroke-width:.57314;stroke-linecap:butt;stroke-linejoin:miter;stroke-miterlimit:4;stroke-dasharray:none;stroke-dashoffset:0;stroke-opacity:1"/><path d="M-989.35-1209.838c2.499-2.513 6.66-3.074 10.227-3.068 4.074.119 6.994 2.051 9.712 4.303 1.216 1.323 2.774 2.237 3.31 4.306.16 1.287-.245 2.01-.662 2.722-.966.69-1.855.886-3.237.379-1.464-2.028-2.982-3.6-5.278-5.088-1.81-1.049-4.226-1.465-7.407-1.085-2.338.714-2.567 1.005-3.575 1.453-1.245.093-1.267.495-2.943-1.103-.89-.872-.89-2.386-.148-2.819z" style="fill:url(#c);fill-opacity:1;stroke:none;stroke-width:.326628px;stroke-linecap:butt;stroke-linejoin:miter;stroke-opacity:1"/><circle cx="1458.188" cy="-162.927" r="32.19" style="opacity:1;vector-effect:none;fill:#fff;fill-opacity:1;stroke:none;stroke-width:.669197;stroke-linecap:butt;stroke-linejoin:miter;stroke-miterlimit:4;stroke-dasharray:none;stroke-dashoffset:0;stroke-opacity:1" transform="rotate(-123.363)"/><path d="M-947.774-1151.637c3.346-3.365 8.918-4.116 13.69-4.107 5.455.158 9.365 2.745 13.002 5.76 1.628 1.77 3.714 2.994 4.433 5.764.213 1.723-.33 2.691-.887 3.644-1.294.923-2.483 1.186-4.334.507-1.96-2.715-3.991-4.819-7.066-6.81-2.421-1.405-5.656-1.963-9.915-1.453-3.13.955-3.436 1.345-4.786 1.945-1.666.125-1.696.663-3.94-1.478-1.19-1.166-1.19-3.193-.197-3.772z" style="fill:url(#d);fill-opacity:1;stroke:none;stroke-width:.43725px;stroke-linecap:butt;stroke-linejoin:miter;stroke-opacity:1"/></g></g><circle cx="101.743" cy="30.326" r="30.034" style="fill:#fff;fill-opacity:1;stroke:#000;stroke-width:2.05374;stroke-miterlimit:4;stroke-dasharray:none;stroke-opacity:1"/><circle cx="101.743" cy="30.326" r="26.009" style="fill:#000;fill-opacity:1;stroke:none;stroke-width:1.58575;stroke-miterlimit:4;stroke-dasharray:none;stroke-opacity:1"/><g style="display:inline;fill:#fff;fill-opacity:1;stroke:none"><path d="M-1040-1053v100h24c15.088 0 30-15.003 30-30 0-14.936-14.813-30.22-30-30.22l-6.412.04v13.972l6.412-.011c8 0 16 8 16 16s-8 16-16 16l-10 .219v-86c.809.021-13.113.08-14 0" style="fill:#fff;fill-opacity:1;stroke:none;stroke-width:.264583px;stroke-linecap:butt;stroke-linejoin:miter;stroke-opacity:1" transform="matrix(.25047 0 0 .25047 345.729 275.77)"/><path d="M-1022-1017h54l10-.15c8 0 16 8 16 16s-8 16-16 16h-10V-1013c-2.412-.036-10.412-.036-14 0l.155 100.347c2.222.037 10.073-.015 13.742 0l.103-58.497h10c15.179 0 30-15.132 30-30 0-16-16-30-30-30l-64 .15c.015 1.55.067 11.778 0 14z" style="fill:#fff;fill-opacity:1;stroke:none;stroke-width:.264583px;stroke-linecap:butt;stroke-linejoin:miter;stroke-opacity:1" transform="matrix(.25047 0 0 .25047 345.729 275.77)"/></g><g style="display:inline" transform="matrix(.10053 0 0 .10053 209.307 158.815)"><circle cx="-1043.875" cy="-1167.205" r="18.506" style="opacity:1;vector-effect:none;fill:#fff;fill-opacity:1;stroke:none;stroke-width:.384706;stroke-linecap:butt;stroke-linejoin:miter;stroke-miterlimit:4;stroke-dasharray:none;stroke-dashoffset:0;stroke-opacity:1" transform="rotate(4.701)"/><path d="M-950.138-1261.643c2.075-1.77 5.303-1.938 8.037-1.708 3.118.348 5.236 2.014 7.178 3.912.85 1.092 1.987 1.891 2.268 3.512.04.997-.316 1.527-.68 2.046-.785.468-1.478.563-2.507.086-.995-1.648-2.06-2.949-3.727-4.235-1.322-.919-3.149-1.39-5.613-1.3-1.838.4-2.032.61-2.834.89-.96-.01-1.003.3-2.187-1.032-.627-.725-.532-1.886.065-2.171z" style="fill:url(#e);fill-opacity:1;stroke:none;stroke-width:.251365px;stroke-linecap:butt;stroke-linejoin:miter;stroke-opacity:1"/><circle cx="-980.128" cy="-1190.477" r="27.57" style="opacity:1;vector-effect:none;fill:#fff;fill-opacity:1;stroke:none;stroke-width:.57314;stroke-linecap:butt;stroke-linejoin:miter;stroke-miterlimit:4;stroke-dasharray:none;stroke-dashoffset:0;stroke-opacity:1"/><path d="M-989.35-1209.838c2.499-2.513 6.66-3.074 10.227-3.068 4.074.119 6.994 2.051 9.712 4.303 1.216 1.323 2.774 2.237 3.31 4.306.16 1.287-.245 2.01-.662 2.722-.966.69-1.855.886-3.237.379-1.464-2.028-2.982-3.6-5.278-5.088-1.81-1.049-4.226-1.465-7.407-1.085-2.338.714-2.567 1.005-3.575 1.453-1.245.093-1.267.495-2.943-1.103-.89-.872-.89-2.386-.148-2.819z" style="fill:url(#f);fill-opacity:1;stroke:none;stroke-width:.326628px;stroke-linecap:butt;stroke-linejoin:miter;stroke-opacity:1"/><circle cx="1458.188" cy="-162.927" r="32.19" style="opacity:1;vector-effect:none;fill:#fff;fill-opacity:1;stroke:none;stroke-width:.669197;stroke-linecap:butt;stroke-linejoin:miter;stroke-miterlimit:4;stroke-dasharray:none;stroke-dashoffset:0;stroke-opacity:1" transform="rotate(-123.363)"/><path d="M-947.774-1151.637c3.346-3.365 8.918-4.116 13.69-4.107 5.455.158 9.365 2.745 13.002 5.76 1.628 1.77 3.714 2.994 4.433 5.764.213 1.723-.33 2.691-.887 3.644-1.294.923-2.483 1.186-4.334.507-1.96-2.715-3.991-4.819-7.066-6.81-2.421-1.405-5.656-1.963-9.915-1.453-3.13.955-3.436 1.345-4.786 1.945-1.666.125-1.696.663-3.94-1.478-1.19-1.166-1.19-3.193-.197-3.772z" style="fill:url(#g);fill-opacity:1;stroke:none;stroke-width:.43725px;stroke-linecap:butt;stroke-linejoin:miter;stroke-opacity:1"/></g></svg>